{"title":"Audiard-1965-Les Bons Vivants-Un grand seigneur.avi","uid":7847087,"size":589387776,"categoryP":"video","categoryS":"movies","magnet":"?xt=urn:btih:feea9037566d959eb9fdfa54c694eda75847b46c&amp;dn=Audiard-1965-Les+Bons+Vivants-Un+grand+seigneur.avi&amp;tr=udp%3A%2F%2Ftracker.openbittorrent.com%3A80&amp;tr=udp%3A%2F%2Fopen.demonii.com%3A1337&amp;tr=udp%3A%2F%2Ftracker.coppersurfer.tk%3A6969&amp;tr=udp%3A%2F%2Fexodus.desync.com%3A6969","seeders":1,"leechers":0,"uploader":"Bonie75","files":-1,"time":1353458670,"description":"FrancaisAudiardAudiard-1965-Les Bons Vivants-Un grand seigneur.avi\nFormat                                   : AVI\nFormat/Info                              : Audio Video Interleave\nFile size                                : 562 MiB\nDuration                                 : 1h 40mn\nOverall bit rate                         : 784 Kbps\nWriting application                      : Nandub v1.0rc2\nWriting library                          : Nandub build 1853/release\n\nVideo\nID                                       : 0\nFormat                                   : MPEG-4 Visual\nCodec ID                                 : DIV3\nCodec ID/Hint                            : DivX 3 Low\nDuration                                 : 1h 40mn\nBit rate                                 : 676 Kbps\nWidth                                    : 512 pixels\nHeight                                   : 400 pixels\nDisplay aspect ratio                     : 1.280\nFrame rate                               : 25.000 fps\nColor space                              : YUV\nChroma subsampling                       : 4:2:0\nBit depth                                : 8 bits\nCompression mode                         : Lossy\nBits/(Pixel*Frame)                       : 0.132\nStream size                              : 484 MiB (86%)\n\nAudio\nID                                       : 1\nFormat                                   : MPEG Audio\nFormat version                           : Version 1\nFormat profile                           : Layer 3\nCodec ID                                 : 55\nCodec ID/Hint                            : MP3\nDuration                                 : 1h 40mn\nBit rate mode                            : Constant\nBit rate                                 : 96.0 Kbps\nChannel(s)                               : 2 channels\nSampling rate                            : 44.1 KHz\nCompression mode                         : Lossy\nStream size                              : 68.8 MiB (12%)\nAlignment                                : Aligned on interleaves\nInterleave, duration                     : 26 ms (0.65 video frame)\nInterleave, preload duration             : 496 ms\n","torrent":{"xt":"urn:btih:feea9037566d959eb9fdfa54c694eda75847b46c","amp;dn":"Audiard-1965-Les+Bons+Vivants-Un+grand+seigneur.avi","amp;tr":["udp%3A%2F%2Ftracker.openbittorrent.com%3A80","udp%3A%2F%2Fopen.demonii.com%3A1337","udp%3A%2F%2Ftracker.coppersurfer.tk%3A6969","udp%3A%2F%2Fexodus.desync.com%3A6969"],"infoHash":"feea9037566d959eb9fdfa54c694eda75847b46c","infoHashBuffer":{"type":"Buffer","data":[254,234,144,55,86,109,149,158,185,253,250,84,198,148,237,167,88,71,180,108]},"announce":[],"urlList":[]}}